<?xml version="1.0" encoding="UTF-8" standalone="no"?>
<!-- Created with Inkscape (http://www.inkscape.org/) -->

<svg
   width="183.95372mm"
   height="221.03168mm"
   viewBox="0 0 183.95372 221.03167"
   version="1.1"
   id="svg1"
   xml:space="preserve"
   inkscape:version="1.3.2 (091e20e, 2023-11-25, custom)"
   sodipodi:docname="gerb.svg"
   xmlns:inkscape="http://www.inkscape.org/namespaces/inkscape"
   xmlns:sodipodi="http://sodipodi.sourceforge.net/DTD/sodipodi-0.dtd"
   xmlns="http://www.w3.org/2000/svg"
   xmlns:svg="http://www.w3.org/2000/svg"><sodipodi:namedview
     id="namedview1"
     pagecolor="#ffffff"
     bordercolor="#000000"
     borderopacity="0.25"
     inkscape:showpageshadow="2"
     inkscape:pageopacity="0.0"
     inkscape:pagecheckerboard="0"
     inkscape:deskcolor="#d1d1d1"
     inkscape:document-units="mm"
     inkscape:zoom="0.73139029"
     inkscape:cx="116.90065"
     inkscape:cy="416.33038"
     inkscape:window-width="1920"
     inkscape:window-height="1017"
     inkscape:window-x="-8"
     inkscape:window-y="-8"
     inkscape:window-maximized="1"
     inkscape:current-layer="layer1"><inkscape:page
       x="0"
       y="0"
       width="183.95372"
       height="221.03166"
       id="page1"
       margin="0 0 0"
       bleed="0" /></sodipodi:namedview><defs
     id="defs1" /><g
     inkscape:label="Слой 1"
     inkscape:groupmode="layer"
     id="layer1"
     transform="translate(-10.852618,-6.5115713)"><g
       id="g1"
       transform="matrix(0.48347563,0,0,0.48347563,-42.217257,-27.791784)"><path
         class="st0"
         d="M 246.11,261.05"
         id="path1" /><line
         class="st0"
         x1="375.94"
         y1="190.12"
         x2="378.41"
         y2="192.28"
         id="line1" /><line
         class="st0"
         x1="373.10001"
         y1="206.13"
         x2="377.45001"
         y2="205.88"
         id="line2" /><line
         class="st0"
         x1="396.10999"
         y1="209.36"
         x2="399.59"
         y2="209.25999"
         id="line3" /><line
         class="st0"
         x1="405.20999"
         y1="209.64"
         x2="403.34"
         y2="211.50999"
         id="line4" /><line
         class="st0"
         x1="403.70999"
         y1="194.63"
         x2="407.47"
         y2="196.88"
         id="line5" /><g
         id="g10">
	<path
   class="st0"
   d="m 115.08,74.45 h 369.74 v 390.79 c 0,0 -4.61,40.13 -65.79,43.42 -61.18,3.29 -95.39,-23.68 -119.03,15.13 0,0 -7.95,-37.5 -96.11,-15.79 0,0 -74.34,9.21 -88.82,-42.11 V 74.45 Z"
   id="path5" />
	<path
   class="st0"
   d="m 115.08,435.63 c 0,0 30.05,-10.53 163.6,-11.84"
   id="path6" />
	<path
   class="st0"
   d="m 321.91,418.14 c -1.86,-1.68 123.44,-6.26 162.91,17.49"
   id="path7" />
	<path
   class="st0"
   d="m 115.13,457.66 c 0,0 151.97,-30.92 161.84,-27.63 0,0 -15.05,17.08 -69.84,30.59 0,0 5.63,6 11.63,3 6,-3 12.38,-6.75 15.01,-4.13 2.63,2.62 9.76,-4.13 9.76,-4.13 0,0 5.25,4.5 12.01,-3.38 l 4.13,1.5 c 0,0 3,-3.35 4.13,-6.37 l 3.75,3.3 c 0,0 9.01,-6.69 11.26,-6.69 2.25,0 -16.14,20.64 -42.78,34.52 0,0 -8.63,8.63 26.64,-9.76 l 2.63,1.88 c 0,0 3.38,-1.5 4.88,-6.75 l 1.88,2.25 c 0,0 1.12,0.38 6.94,-7.88 l 2.44,2.63 c 0,0 8.63,-6.21 15.76,-20.55 l 14.63,17.93 v 5.25 c 0,0 3.75,3 6.38,1.88 0,0 0.38,7.13 4.5,7.88 0,0 2.71,6.75 6.24,6 3.52,-0.75 3.52,-0.75 3.52,-0.75 0,0 -13.88,-18.39 -13.51,-30.4 0,0 12.01,9.46 17.26,7.17 0,0 9.01,5.21 10.88,4.46 1.88,-0.75 3,-4.88 -7.13,-7.13 -10.13,-2.25 -19.51,-4.33 -18.39,-12.3 l 11.63,2.54 c 0,0 13.13,7.88 17.64,4.88 0,0 14.26,7.96 17.64,7.54 0,0 2.25,-2.21 8.26,0 6,2.21 -2.16,-11.06 -47.8,-25.25 0,0 62.5,-2.39 155.92,20.64"
   id="path8" />
	<path
   class="st0"
   d="m 276.97,430.03 c 0,0 3.28,-4.25 2.91,-31.64 0,0 5.63,-15.01 3.75,-24.77 -1.88,-9.76 -6,-23.27 -12.38,-21.01 -6.38,2.25 -10.88,7.88 -10.88,7.88 0,0 -6.75,2.25 8.26,-14.26 0,0 -16.51,-21.39 -6,-32.27 0,0 4.5,20.64 8.81,20.26 4.32,-0.38 4.32,-0.38 4.32,-0.38 0,0 -3.74,-16.51 8.26,-39.03 0,0 4.84,-41.65 -25.16,-37.9 -30.01,3.75 -21.75,40.9 -36.01,45.03 0,0 -1.13,-2.25 0,-9.01 1.13,-6.75 -0.75,6.38 -9.76,9.76 l -5.25,7.88 c 0,0 -6,3 12.01,-31.15 0,0 -0.75,-7.13 -16.89,-1.13 0,0 1.5,-9.76 23.27,-7.13 l 12.01,-18.01 c 0,0 -24.77,-15.01 -21.39,-24.02 0,0 10.05,-0.38 26.79,16.14 0,0 21.99,-6 35.88,2.63 0,0 1.13,-48.78 -22.89,-48.78 0,0 -24.77,4.88 -44.28,27.39 0,0 -0.75,25.89 -13.13,29.27 0,0 3,-3.75 4.5,-27.02 0,0 -19.89,6.75 -24.39,4.13 l 26.27,-10.51 c 0,0 10.51,-6.75 12.38,-12.76 1.88,-6 -24.39,-5.63 -42.78,-1.13 0,0 -9.41,-0.75 20.81,-9.38 0,0 -0.55,-18.76 -5.8,-22.14 0,0 7.88,4.88 10.51,9.38 2.63,4.5 6,11.63 6,11.63 l 18.01,3 c 0,0 9.38,-1.5 15.39,-7.51 0,0 -8.63,-15.01 -30.02,-19.14 0,0 10.13,-7.13 33.77,13.51 0,0 3,1.88 4.5,-3 1.5,-4.88 -9.01,-20.64 -5.63,-28.14 0,0 12.38,6.75 14.63,27.77 0,0 6.38,4.88 8.63,4.5 2.25,-0.38 6,-0.38 6,-0.38 0,0 -9.01,-18.76 -8.26,-26.64 0,0 -0.38,-24.02 -9.38,-29.27 -9.01,-5.25 -14.63,-4.5 -14.26,-12.38 0,0 5.25,1.13 8.26,4.13 3,3 3,-3.75 12.38,0.75 0,0 3.38,1.13 6,6 2.63,4.88 4.88,-21.39 0,-30.4 0,0 10.88,-3.75 11.26,32.27 0,0 1.72,6 6.3,-10.51 4.58,-16.51 7.21,-10.88 7.21,-10.88 0,0 1.5,16.14 0,19.89 -1.5,3.75 -10.51,11.26 -10.13,16.14 0.38,4.88 3.38,28.52 14.26,33.77 0,0 3,3 12.76,40.9 0,0 6,0.75 30.02,-46.91 0,0 2.25,-7.13 -7.13,-10.88 l -10.51,9.01 c 0,0 -10.51,-2.25 -10.13,-3.75 0.38,-1.5 -4.13,1.13 -4.13,1.13 0,0 -2.25,-2.25 0,-4.5 l -2.63,-4.88 c 0,0 0.38,-5.25 4.88,-9.76 0,0 2.63,1.13 5.63,3.38 l 4.88,-1.88 c 0,0 8.26,0.75 10.13,6 1.88,5.25 1.5,-3.38 1.5,-3.38 0,0 -12.38,-12.38 -10.13,-17.26 2.25,-4.88 0,-10.51 0,-10.51 0,0 2.63,0.38 4.5,-0.75 1.88,-1.13 6,-7.88 6,-7.88 0,0 4.6,8.26 7.37,7.88 2.77,-0.38 -2.49,7.51 1.64,11.63 4.13,4.13 6.38,4.13 6.38,4.13 0,0 6.38,-3.38 8.63,-3.38 2.25,0 2.25,6.38 -5.25,17.26 0,0 -7.88,6.75 -14.26,4.5 -6.38,-2.25 3,9.01 14.26,3 11.26,-6.01 14.26,-12.01 13.13,-39.03 0,0 3,-9.76 5.25,-9.38 2.25,0.38 -2.25,25.89 -1.5,28.52 0.75,2.63 2.63,0.75 5.63,-2.25 3,-3 2.25,-5.25 11.26,-7.51 0,0 8.26,-8.63 12.38,-9.38 0,0 0.75,5.63 -7.51,11.26 -8.26,5.63 -28.52,30.4 -39.78,39.4 l -3.38,31.52 20.64,-9.38 c 0,0 3.75,-6.75 9.76,-8.26 l -0.38,-5.25 1.5,-6.38 c 0,0 -1.13,-4.13 2.63,-7.13 3.75,-3 -2.25,-7.13 5.25,-12.01 7.51,-4.88 9.01,-4.5 9.01,-4.5 0,0 4.13,2.25 4.13,6.75 0,4.5 -1.88,7.88 -1.88,7.88 0,0 2.63,4.5 -1.88,9.01 0,0 -4.88,8.63 -13.88,12.76 -9.01,4.13 -7.13,7.88 -7.13,7.88 0,0 28.52,-2.25 30.4,-4.5 1.88,-2.25 6,-12.76 6,-12.76 l 3.38,0.38 c 0,0 3.75,-6.75 4.88,-5.25 1.13,1.5 1.13,1.5 1.13,1.5 0,0 5.63,0 8.63,-4.5 0,0 6,4.88 9.76,6 0,0 -3,6 -1.88,7.51 1.13,1.5 1.13,1.5 1.13,1.5 0,0 0,4.88 -9.01,3.38 l -3.75,6.75 c 0,0 -1.88,1.5 -16.51,-2.25 l -3.75,3.75 16.14,1.5 c 0,0 3,1.88 6,-0.75 l 6.38,6.75 5.25,1.88 v 10.13 l 1.88,5.63 c 0,0 -2.25,2.63 -9.38,-1.5 h -5.25 l -1.5,-5.25 -3.75,-2.25 -2.63,-0.38 -9.76,-13.13 c 0,0 -2.25,-3.38 -6.75,-0.38 0,0 -0.75,2.63 4.88,6.75 l 6.38,3.75 c 0,0 1.5,4.5 6,6.75 4.5,2.25 7.88,13.13 2.25,21.76 0,0 -11.26,-4.88 -12.01,-3.75 -0.75,1.13 -8.63,-12.01 -3.75,-13.88 l -0.75,-12.76 c 0,0 -2.63,-3.38 -3.75,-2.25 -1.13,1.13 1.13,10.88 1.13,10.88 0,0 0.75,9.01 -1.13,11.63 -1.88,2.63 -13.51,11.26 -15.39,10.13 -1.88,-1.13 -2.25,-13.51 0,-12.38 0,0 -2.25,-5.25 -0.75,-5.25 1.5,0 4.13,-5.63 4.13,-5.63 l 2.25,-6 h 6 l 0.75,-9.01 c 0,0 -11.63,-3.75 -19.14,2.25 l 3.75,16.14 c 0,0 -4.49,4.93 -1.5,9.38 2.99,4.45 -7.88,6 -7.88,6 0,0 -3.38,5.63 -6.38,4.5 -3,-1.13 -4.5,-10.13 -4.5,-10.13 l -2.63,-2.63 4.88,-6 -0.75,-5.63 c 0,0 4.5,0 6.75,-1.88 2.25,-1.88 0,-5.25 0,-5.25 0,0 7.13,-5.63 2.25,-5.25 -4.88,0.38 -27.39,9.76 -30.4,15.39 -3.01,5.63 -24.77,26.27 -24.77,26.27 0,0 -6,7.13 2.25,25.14 0,0 -8.26,44.28 -4.13,72.42 0,0 6.75,-6 26.64,-54.41 l -3.38,-6.75 c 0,0 3,-3.38 1.5,-7.51 -1.5,-4.13 1.88,-4.13 1.88,-4.13 l -2.25,-6.19 c 0,0 2.63,-2.44 6,-2.44 3.38,0 5.63,-6.38 5.63,-6.38 0,0 4.13,2.25 4.13,7.13 0,4.88 4.13,1.69 4.13,1.69 0,0 1.13,8.44 -1.5,12.57 -2.63,4.13 -5.25,9.38 -5.25,9.38 0,0 8.63,1.13 14.63,-7.51 6,-8.63 6,-8.63 6,-8.63 l 2.25,2.25 c 0,0 6.38,-9.01 7.13,-6.38 0.75,2.63 -0.75,8.63 0.38,8.63 1.13,0 7.51,-3.38 8.26,-1.5 0.75,1.88 -3.38,7.13 -3.38,9.38 0,2.25 2.25,4.88 2.25,4.88 0,0 -6.75,4.13 -10.13,4.5 -3.38,0.38 -13.13,3 -13.13,3 l 2.25,3.17 h -4.88 c 0,0 8.26,9.21 10.13,14.46 1.88,5.25 4.13,1.88 4.13,1.88 l -1.13,7.13 c 0,0 4.88,10.13 -7.13,6 0,0 -4.13,-0.75 -4.88,-6.38 -0.75,-5.63 -5.25,-2.25 -5.25,-2.25 l -0.75,-7.88 c 0,0 -4.13,-16.65 -9.38,-12.08 -5.25,4.57 -13.51,6.45 -31.9,66.12 0,0 5.09,11.43 4.5,52.03 l 7.04,11.64"
   id="path9" />
	<path
   class="st0"
   d="m 340.3,139.09 c 0,0 -1.86,4.58 0,7.76 1.86,3.18 -6.1,3.58 -6.1,3.58 0,0 0,1.99 0,4.78 0,2.79 0,6.11 0,6.11 l -3.29,-5.35"
   id="path10" />
	<line
   class="st0"
   x1="341.04999"
   y1="289.94"
   x2="351.92999"
   y2="287.31"
   id="line10" />
	<polyline
   class="st0"
   points="360.16,285.56 351.93,299.12 363.56,299.12  "
   id="polyline10" />
</g></g><path
       style="opacity:1;fill:#3a5a78;fill-opacity:1;stroke:#000000;stroke-width:0;stroke-linecap:round;stroke-linejoin:round;stroke-miterlimit:4;stroke-dasharray:none;stroke-opacity:1;paint-order:stroke fill markers"
       d="m 345.2901,818.94867 c -2.33886,-4.4088 -11.03775,-13.62144 -16.11894,-17.07091 -16.89784,-11.47149 -39.31517,-16.70217 -71.03605,-16.57498 -25.46101,0.10208 -42.66892,2.37353 -82.66125,10.91129 -8.77925,1.87425 -11.75649,2.02022 -32.38773,1.58802 -35.85438,-0.75113 -57.267974,-5.27806 -81.230493,-17.17248 -23.367201,-11.59892 -40.303205,-29.81025 -48.315789,-51.95411 -2.413121,-6.66899 -2.931874,-9.46497 -2.70384,-14.57318 l 0.282171,-6.32094 15.952169,-3.207 C 159.10219,678.0309 279.67654,656.93934 299.38612,656.93934 h 3.48758 l -3.75844,3.03532 c -22.67255,18.31037 -65.20768,36.21187 -119.15566,50.14831 l -4.21546,1.08899 2.28186,2.44512 c 3.51659,3.7682 9.50143,6.45575 14.42346,6.47698 3.33034,0.0144 6.7557,-1.12696 14.01857,-4.67096 9.68083,-4.72387 17.88288,-6.64258 19.21077,-4.49399 1.51816,2.45641 7.85692,1.15399 13.44915,-2.76337 4.84851,-3.3964 5.7905,-3.72399 8.13636,-2.8295 4.2491,1.62022 10.38165,0.16333 15.38335,-3.65455 4.18498,-3.19447 4.74501,-3.36369 7.91368,-2.39119 4.03992,1.23988 5.04623,0.62551 8.90437,-5.43629 l 2.63119,-4.13405 2.90234,2.44215 c 1.59629,1.34319 3.09923,2.44216 3.33988,2.44216 0.24065,0 4.03921,-2.41073 8.44126,-5.35719 4.40203,-2.94645 8.25251,-5.10839 8.5566,-4.8043 0.83353,0.83354 -14.55563,16.03799 -24.96552,24.66585 -12.81408,10.6205 -22.61869,17.53804 -37.22173,26.2614 -14.69908,8.78073 -14.98537,9.00004 -14.98537,11.47946 0,4.63698 11.5792,0.96387 36.81621,-11.67871 13.82549,-6.92593 13.94841,-6.96545 16.72003,-5.37475 2.52431,1.44875 3.00934,1.46015 5.05634,0.11891 1.24532,-0.81596 3.25467,-3.21801 4.46525,-5.33789 2.11839,-3.70959 3.65125,-4.92808 3.65125,-2.90243 0,0.53174 0.81949,0.9668 1.8211,0.9668 1.77677,0 6.21307,-4.31799 10.42929,-10.15117 l 2.09625,-2.90018 2.25727,2.1206 2.25728,2.12059 3.96696,-3.29518 c 5.40899,-4.493 13.64287,-14.72428 20.00472,-24.85754 l 5.28844,-8.4235 12.67767,15.53697 c 12.43333,15.23751 12.67768,15.62858 12.67768,20.2904 0,4.32534 0.28298,4.92597 3.14209,6.66921 1.72815,1.05367 4.25626,1.9174 5.61802,1.91939 2.15953,0.003 2.63379,0.61957 3.71131,4.82388 0.82984,3.23787 2.21013,5.64044 4.2046,7.31868 1.63305,1.37413 4.25259,4.43599 5.82119,6.80415 1.56861,2.36815 3.73533,4.77847 4.81494,5.35626 1.80256,0.9647 10.57469,0.46991 12.47341,-0.70356 0.40772,-0.25199 -1.89707,-4.46771 -5.12178,-9.36828 -7.34759,-11.1661 -14.48243,-25.27361 -17.1484,-33.90702 -3.23063,-10.46201 -3.01773,-10.88844 3.38976,-6.78962 8.10475,5.18454 15.35169,8.09995 20.13435,8.09995 2.9501,0 6.30625,1.04665 10.99619,3.42926 11.11562,5.64701 16.60698,5.48872 16.60698,-0.47871 0,-2.60212 -2.52616,-5.64313 -6.28418,-7.56492 -1.06348,-0.54385 -7.82458,-2.51094 -15.02468,-4.37132 -15.1454,-3.9133 -21.24543,-6.52321 -24.62008,-10.53375 -2.04727,-2.43304 -3.37912,-7.5509 -1.96501,-7.5509 3.6667,0 19.56234,4.87699 26.64199,8.17412 10.39972,4.84333 17.39772,6.7171 21.92521,5.87064 2.48618,-0.46482 5.13193,0.44155 13.53518,4.63682 14.45414,7.21615 19.88276,8.91891 23.56799,7.39243 1.80604,-0.74808 4.37813,-0.93186 6.95624,-0.49702 10.85196,1.83031 10.37484,1.84228 10.37484,-0.26029 0,-8.57503 -31.60919,-26.57224 -71.88965,-40.93156 l -10.77159,-3.8399 20.78616,0.58404 c 68.24694,1.91756 153.52218,13.73788 234.93195,32.56479 9.30543,2.15198 17.24526,4.10991 17.64406,4.35095 0.39881,0.24104 0.71593,7.04723 0.70471,15.12487 -0.0181,13.01326 -0.28562,15.43818 -2.34821,21.28294 -3.73894,10.59501 -10.03513,20.62576 -18.64455,29.7035 -19.13742,20.17843 -44.86181,31.6711 -82.43425,36.82845 -12.15812,1.66887 -56.70975,1.66574 -72.50986,-0.005 -6.64674,-0.70288 -25.13675,-2.99807 -41.08892,-5.10041 -33.30325,-4.38905 -53.2399,-5.54642 -65.26169,-3.7886 -20.07572,2.93546 -36.22779,12.59584 -48.1041,28.77056 -2.46021,3.35064 -4.71625,6.09209 -5.01342,6.09209 -0.29715,0 -1.56201,-1.92599 -2.8108,-4.27996 z"
       id="path2"
       transform="matrix(0.26458333,0,0,0.26458333,10.852618,6.5115713)" /><path
       style="opacity:1;fill:#2a81fc;fill-opacity:1;stroke:#000000;stroke-width:0;stroke-linecap:round;stroke-linejoin:round;stroke-miterlimit:4;stroke-dasharray:none;stroke-opacity:1;paint-order:stroke fill markers"
       d="m 11.240274,686.1829 0.381428,-18.95547 10.938072,-2.34481 c 25.76804,-5.52392 86.316506,-11.58764 146.980346,-14.71957 35.11327,-1.81282 135.50357,-4.44398 136.37331,-3.57425 0.37454,0.37456 0.28776,2.24784 -0.19288,4.16284 -0.76582,3.05127 -1.59624,3.48182 -6.71547,3.48182 -19.19185,0 -120.26261,17.33679 -246.489094,42.28058 -18.86773,3.72848 -35.959204,7.19424 -37.981052,7.70169 l -3.676088,0.92264 z"
       id="path11"
       transform="matrix(0.26458333,0,0,0.26458333,10.852618,6.5115713)" /><path
       style="opacity:1;fill:#2a81fc;fill-opacity:1;stroke:#000000;stroke-width:0;stroke-linecap:round;stroke-linejoin:round;stroke-miterlimit:4;stroke-dasharray:none;stroke-opacity:1;paint-order:stroke fill markers"
       d="M 667.22242,687.61943 C 596.74593,670.08938 499.98345,656.57118 431.32508,654.6634 l -30.12485,-0.83707 -5.20095,-8.79261 c -2.86052,-4.83594 -4.78818,-9.20502 -4.28369,-9.70907 1.71007,-1.70854 124.79967,-0.99608 146.98448,0.85077 63.74494,5.30667 107.8922,13.81373 134.27806,25.87503 l 10.6514,4.86888 v 12.11506 c 0,8.86033 -0.45914,12.07487 -1.70908,11.96546 -0.93999,-0.0823 -7.5541,-1.60347 -14.69803,-3.38042 z"
       id="path12"
       transform="matrix(0.26458333,0,0,0.26458333,10.852618,6.5115713)" /><path
       style="opacity:1;fill:#d4a762;fill-opacity:1;stroke:#000000;stroke-width:0;stroke-linecap:round;stroke-linejoin:round;stroke-miterlimit:4;stroke-dasharray:none;stroke-opacity:1;paint-order:stroke fill markers"
       d="m 391.64229,736.21679 c -3.53281,-3.98804 -7.22413,-9.5452 -8.20291,-12.34922 -1.20742,-3.45899 -3.60852,-5.46403 -7.46767,-6.23585 -4.67155,-0.93431 -5.68802,-2.10615 -5.68802,-6.55748 0,-3.75369 -3.6054,-9.86142 -11.72798,-19.8677 -17.71402,-21.82215 -15.89265,-21.07357 -22.57338,-9.27732 -3.20778,5.66404 -9.3459,14.21379 -13.64028,18.99944 -6.37553,7.1049 -8.27306,8.2481 -10.3433,6.2315 -2.06958,-2.01597 -3.65427,-1.13694 -8.62577,4.78468 -5.29978,6.31263 -6.49779,6.91626 -9.22857,4.64991 -2.64099,-2.19183 -3.13817,-2.17558 -3.13817,0.10248 0,1.48881 -1.38357,4.68225 -3.0746,7.09653 -2.33951,3.34012 -3.68738,3.88104 -5.63763,2.26249 -1.93967,-1.60978 -6.82578,0.0137 -20.08992,6.67541 -21.79147,10.94433 -25.94675,11.30759 -9.7737,0.85445 18.68176,-12.07461 28.53264,-19.9328 43.89324,-35.01435 18.63895,-18.30033 18.93851,-25.36693 0.55845,-13.17346 -8.02547,5.32416 -8.86781,5.50393 -12.09683,2.5817 -1.90888,-1.72751 -3.72871,-2.78372 -4.04407,-2.34713 -0.31535,0.4366 -2.02181,3.11262 -3.79213,5.94672 -2.24064,3.58703 -4.36224,4.85386 -6.98167,4.16887 -2.16395,-0.56589 -6.24383,0.8502 -9.60138,3.33255 -4.27224,3.15859 -7.3868,4.0069 -11.61017,3.16222 -4.12215,-0.82442 -7.16316,-0.0598 -10.64045,2.67544 -3.74829,2.94841 -6.57352,3.55716 -12.27638,2.64524 -5.61311,-0.89756 -10.15142,0.0289 -18.73389,3.8245 -11.8953,5.26066 -17.72831,6.10042 -22.29546,3.20979 -2.01599,-1.27596 -0.46895,-2.32732 5.80079,-3.9422 40.57964,-10.452 93.60332,-33.59036 109.60801,-47.8305 9.6691,-8.60309 12.05735,-17.51564 12.05735,-44.9961 0,-10.49989 1.45441,-22.51582 3.8672,-31.94972 4.51084,-17.63722 4.83735,-29.10815 1.21082,-42.53912 -7.74462,-28.6825 -15.99329,-35.49043 -31.43674,-25.94585 -8.23704,5.09078 -8.21449,3.53709 0.0958,-6.60458 6.11941,-7.46794 6.38997,-8.35026 3.65739,-11.927 -7.05676,-9.23677 -14.12984,-27.30174 -14.13132,-36.09207 -0.003,-15.8829 2.13602,-16.6092 6.69793,-2.27454 6.31477,19.84262 7.80382,21.93576 15.60493,21.93576 h 6.69956 v -14.09573 c 0,-15.90137 3.62567,-31.81419 10.98525,-48.21352 4.58143,-10.20879 4.92397,-12.75764 4.07735,-30.33962 -0.76273,-15.83956 -1.85521,-21.09724 -6.25031,-30.08049 -9.36246,-19.13621 -27.35089,-26.16924 -50.05306,-19.56954 -19.53349,5.67852 -30.41623,19.71533 -39.86585,51.41987 -7.28715,24.4492 -16.64988,35.71175 -15.27057,18.36917 0.75603,-9.50583 -0.8604,-11.13514 -4.31619,-4.3506 -1.21882,2.39283 -6.9804,8.97089 -12.80351,14.61791 -12.45798,12.08127 -12.29517,10.30725 1.60453,-17.48317 5.17646,-10.34959 9.41175,-20.59502 9.41175,-22.76761 0,-5.2193 -8.21291,-8.2604 -18.28241,-6.76969 -7.16094,1.06011 -7.51725,0.91505 -4.22111,-1.71855 4.21574,-3.36832 22.24349,-6.00401 29.17219,-4.26503 4.33355,1.08767 5.95014,-0.49676 16.47062,-16.14297 6.416,-9.54195 11.66545,-17.70181 11.66545,-18.13302 0,-0.43121 -3.65303,-3.20149 -8.11785,-6.15616 -15.64707,-10.35474 -32.48768,-28.44276 -32.48768,-34.89409 0,-2.17129 10.24958,1.12079 18.57746,5.96695 4.36847,2.54209 12.79281,8.57288 18.72076,13.40177 l 10.77809,8.77977 15.11717,-2.11004 c 17.485,-2.44053 30.91846,-1.12853 42.96974,4.19668 4.68412,2.06981 8.97611,3.3038 9.53774,2.74216 2.05774,-2.05773 -3.7684,-46.19533 -7.59854,-57.56494 -7.57194,-22.47694 -19.64675,-34.31762 -34.91798,-34.24091 -16.69374,0.0839 -56.43963,21.97097 -74.41754,40.97994 -8.97282,9.48744 -9.81963,11.2144 -10.99008,22.41266 -1.44153,13.79177 -7.48767,29.36503 -13.42024,34.56702 -3.89694,3.41703 -3.97613,3.41208 -2.66555,-0.16631 2.01186,-5.49319 5.98179,-41.52011 4.71485,-42.78704 -0.60213,-0.60212 -8.08393,0.68971 -16.62624,2.87075 -23.21984,5.92856 -23.01212,4.72381 0.85227,-4.94305 22.57699,-9.14534 35.2544,-18.00514 40.62554,-28.3918 2.9271,-5.66037 2.88118,-6.14348 -0.87287,-9.18333 -5.61497,-4.54672 -24.30776,-6.0043 -47.05978,-3.6695 -10.73689,1.10181 -19.86933,1.65558 -20.29431,1.2306 -0.42499,-0.42499 5.98564,-2.92637 14.24584,-5.55864 14.90276,-4.74904 15.01815,-4.83699 14.96709,-11.40727 -0.0283,-3.64174 -0.65936,-10.71883 -1.40237,-15.72688 -1.89869,-12.79766 1.77054,-10.64032 11.84219,6.96264 l 8.06833,14.10163 16.26521,2.41986 c 8.94587,1.33092 19.15006,1.81785 22.67599,1.08205 6.73827,-1.40615 21.83369,-9.35741 23.79751,-12.53494 1.3103,-2.1201 -12.3413,-17.57053 -20.92602,-23.6834 -3.14204,-2.23732 -10.59202,-6.1475 -16.55552,-8.68927 -10.22822,-4.35949 -10.41044,-4.55112 -3.21513,-3.38112 9.90451,1.61053 22.97922,8.31218 35.45249,18.17174 11.56913,9.14486 16.31022,9.85798 19.46766,2.92815 1.90322,-4.17711 1.36849,-7.61293 -3.3855,-21.75296 -10.10481,-30.05529 -9.6274,-33.58545 2.6088,-19.29021 6.45106,7.53662 14.60601,27.73885 14.60601,36.18343 0,4.80123 13.59495,11.75395 22.98302,11.75395 4.37499,0 7.95452,-0.26597 7.95452,-0.59105 0,-0.32507 -3.12967,-8.3525 -6.95482,-17.83872 -5.11504,-12.68506 -7.39561,-21.90663 -8.62108,-34.85956 -3.59205,-37.96719 -8.44751,-48.55033 -26.15082,-56.99934 -11.81347,-5.63805 -17.8809,-10.572691 -15.69162,-12.76198 0.62735,-0.627346 4.19683,0.748199 7.93217,3.056768 5.55805,3.435062 7.54073,3.796442 10.91658,1.989742 5.80054,-3.104356 12.31041,-0.94921 21.08894,6.98167 7.55314,6.82381 7.56026,6.82566 9.84297,2.56038 1.53776,-2.87333 2.02599,-12.029324 1.49383,-28.014289 -0.46345,-13.920803 -0.0653,-23.297718 0.96216,-22.662685 4.05838,2.508213 9.35101,19.090786 10.23463,32.06653 1.5607,22.918444 2.48847,26.845694 6.17547,26.140644 2.22002,-0.42453 5.45159,-6.84184 10.04115,-19.939912 3.72217,-10.62266 7.6377,-19.313926 8.70118,-19.313926 1.08436,0 2.17835,6.888941 2.49088,15.685068 0.55541,15.63203 0.53191,15.71717 -6.94606,25.17751 -13.732,17.37228 -14.45168,21.366 -8.23232,45.68348 4.6075,18.01518 9.72711,28.31402 18.37293,36.95984 6.86036,6.86037 12.18083,21.07225 22.35058,59.70235 2.55511,9.70569 5.46983,16.91897 6.83659,16.91897 6.23202,0 21.78028,-21.9917 42.50364,-60.11779 13.98526,-25.72955 15.84308,-33.57002 9.59141,-40.47803 l -3.71799,-4.10835 5.74827,1.52703 c 13.05622,3.46839 25.75939,-0.99899 36.43187,-12.81214 8.05726,-8.91843 10.88874,-20.53079 10.88874,-44.65649 0,-11.13212 1.05062,-19.883796 2.92578,-24.371667 1.60918,-3.851302 3.26242,-6.651239 3.67391,-6.222083 0.41147,0.429156 0.0119,7.74123 -0.88792,16.24905 -0.89984,8.50783 -1.68299,20.0369 -1.74032,25.62015 -0.13289,12.93921 2.97813,13.30333 14.28274,1.67173 4.53272,-4.66381 10.3284,-9.13164 12.87932,-9.92851 2.55092,-0.79686 8.80591,-4.92227 13.90001,-9.16757 20.22282,-16.853214 9.18816,-3.7042 -31.89371,38.00487 l -43.11055,43.76873 -3.16375,29.45876 c -1.74007,16.20232 -2.94982,29.6992 -2.68834,29.99307 0.26146,0.29389 9.20661,-3.4144 19.8781,-8.24064 12.86016,-5.81608 22.09567,-11.46796 27.38909,-16.76137 8.56272,-8.56272 12.86083,-9.0054 6.28649,-0.64747 -7.2052,9.15991 -4.57456,10.16961 19.56076,7.50786 11.92569,-1.31522 25.59861,-2.96186 30.38426,-3.65918 l 8.70118,-1.26787 -6.51359,6.1275 c -5.74394,5.40349 -6.26289,6.67768 -4.39204,10.78378 1.85225,4.06524 1.63593,4.65628 -1.7042,4.65628 -2.74611,0 -3.82573,-1.30578 -3.82573,-4.62712 0,-2.54491 -1.37634,-5.15527 -3.05855,-5.80079 -5.88136,-2.25689 -22.32099,-1.14743 -28.22316,1.9047 -3.27412,1.69311 -8.23408,2.63505 -11.02215,2.09321 -6.32089,-1.22841 -24.25237,4.65769 -41.12441,13.49929 -10.44669,5.47447 -16.75393,11.07426 -33.70101,29.92097 -11.46698,12.75232 -22.47992,24.05885 -24.4732,25.12563 -10.87834,5.82191 -14.26753,25.79528 -7.59733,44.77314 3.20319,9.1137 3.31752,11.73511 1.15733,26.53863 -6.12844,41.99771 -8.51026,96.44461 -4.94776,113.10299 l 1.2399,5.79791 5.11556,-6.76471 c 6.47869,-8.56726 18.3715,-32.10777 33.70042,-66.70619 11.66735,-26.33402 12.19619,-27.13205 19.44146,-29.33875 4.09632,-1.24761 10.36409,-2.33526 13.92839,-2.41699 l 6.48052,-0.1486 -4.54693,7.5516 c -2.50082,4.15337 -8.89752,10.99182 -14.21491,15.19654 -15.64007,12.36736 -28.73962,37.9105 -46.34397,90.36724 -8.56773,25.52976 -8.9657,27.62056 -6.99303,36.73833 3.31059,15.30159 5.89395,44.58842 5.93038,67.23089 0.0309,19.19868 0.43609,21.46232 5.18978,28.99264 2.83592,4.49242 5.15624,9.23733 5.15624,10.54427 0,1.30691 8.33863,5.10813 18.53031,8.44716 21.53972,7.05689 58.47565,24.48374 66.8702,31.5502 l 5.80079,4.88307 -10.20653,0.0695 c -7.73641,0.0527 -13.11786,-1.4139 -22.23636,-6.06006 -6.6164,-3.37129 -14.46591,-5.96451 -17.44334,-5.76276 -2.97741,0.20177 -10.80847,-1.90007 -17.40236,-4.67074 -6.59388,-2.77067 -16.99204,-6.1604 -23.10704,-7.53273 l -11.11818,-2.49515 v 5.3892 c 0,8.18938 8.83093,14.30554 27.9466,19.35536 15.12304,3.99508 22.59361,8.02505 19.88943,10.72922 -0.58023,0.58021 -4.58509,-0.74598 -8.8997,-2.94713 -4.31459,-2.20115 -9.83715,-4.01059 -12.27234,-4.02097 -4.64794,-0.0198 -20.69913,-7.28705 -28.11419,-12.72877 -4.11395,-3.01914 -4.35059,-2.98872 -4.35059,0.55929 0,10.16776 9.38496,32.89098 20.80625,50.3769 4.89455,7.49355 -1.79312,5.36567 -9.11563,-2.9004 z"
       id="path13"
       transform="matrix(0.26458333,0,0,0.26458333,10.852618,6.5115713)" /><path
       style="opacity:1;fill:#d3cecb;fill-opacity:1;stroke:#000000;stroke-width:0;stroke-linecap:round;stroke-linejoin:round;stroke-miterlimit:4;stroke-dasharray:none;stroke-opacity:1;paint-order:stroke fill markers"
       d="m 421.16782,393.20235 c -1.98909,-4.41101 -2.15623,-6.19885 -0.91292,-9.7654 0.83707,-2.40122 1.14075,-6.74967 0.67485,-9.66324 -0.69224,-4.32907 -0.44025,-5.29739 1.37855,-5.29739 2.70164,0 2.69452,0.3055 0.16015,-6.87768 -1.13602,-3.21982 -1.9051,-5.98253 -1.70907,-6.13936 1.92283,-1.53837 6.86834,-3.39007 9.05417,-3.39007 1.49867,0 4.64673,-2.30725 6.99569,-5.12722 4.02323,-4.82997 4.37997,-4.9812 6.15333,-2.60842 1.03538,1.38535 2.28057,4.87493 2.76709,7.75463 0.867,5.13174 3.63464,7.68792 6.444,5.95164 0.94241,-0.58245 1.20478,2.04186 0.78556,7.8573 -0.51411,7.13153 -1.67837,10.52014 -6.35261,18.4894 -5.35866,9.13614 -6.13493,9.85846 -12.18884,11.34172 -3.55613,0.87128 -7.4443,1.87428 -8.64039,2.2289 -1.50521,0.44626 -2.92428,-1.01752 -4.60956,-4.75481 z"
       id="path14"
       transform="matrix(0.26458333,0,0,0.26458333,10.852618,6.5115713)" /><path
       style="opacity:1;fill:#d3cecb;fill-opacity:1;stroke:#000000;stroke-width:0;stroke-linecap:round;stroke-linejoin:round;stroke-miterlimit:4;stroke-dasharray:none;stroke-opacity:1;paint-order:stroke fill markers"
       d="m 446.41008,414.32799 c 0,-2.41617 12.90968,-21.17358 16.29539,-23.67674 2.30172,-1.70173 7.13129,-7.28951 10.73239,-12.41729 5.45581,-7.76879 6.92485,-9.08517 8.81101,-7.89541 1.83316,1.15632 3.31001,0.2701 7.76698,-4.6608 l 5.50341,-6.08862 0.0561,7.86174 c 0.0631,8.8432 0.42215,9.05847 9.66827,5.79625 3.21982,-1.13601 6.07473,-1.84497 6.34424,-1.57546 0.26952,0.26952 -1.11906,4.00474 -3.08573,8.30051 -3.39147,7.40794 -3.55122,9.25753 -1.27621,14.77601 1.35528,3.28751 -9.88467,8.29479 -27.0329,12.04286 -11.96686,2.61559 -13.29917,3.20444 -12.55501,5.54909 0.77375,2.43786 0.054,2.62299 -10.1977,2.62299 -6.06661,0 -11.03021,-0.28581 -11.03021,-0.63513 z"
       id="path15"
       transform="matrix(0.26458333,0,0,0.26458333,10.852618,6.5115713)" /><path
       style="opacity:1;fill:#d3cecb;fill-opacity:1;stroke:#000000;stroke-width:0;stroke-linecap:round;stroke-linejoin:round;stroke-miterlimit:4;stroke-dasharray:none;stroke-opacity:1;paint-order:stroke fill markers"
       d="m 476.5179,469.52504 c -5.19335,-2.11835 -7.98604,-5.19984 -8.99569,-9.92596 -1.20225,-5.62768 -3.00336,-7.71996 -6.64561,-7.71996 -2.58876,0 -3.16806,-1.13856 -4.48193,-8.80891 -0.8299,-4.8449 -3.07426,-12.2281 -4.98747,-16.40711 l -3.47858,-7.5982 h 8.01202 8.01202 l 6.40854,8.52524 c 3.52469,4.68888 7.90872,11.48572 9.74229,15.10409 1.83357,3.61837 4.13131,6.8849 5.1061,7.25896 1.24089,0.47618 1.73669,3.63423 1.65348,10.53202 -0.11443,9.48573 -0.24589,9.86251 -3.53699,10.13726 -1.87998,0.15695 -4.94367,-0.3369 -6.80818,-1.09743 z"
       id="path16"
       transform="matrix(0.26458333,0,0,0.26458333,10.852618,6.5115713)" /><path
       style="opacity:1;fill:#d3cecb;fill-opacity:1;stroke:#000000;stroke-width:0;stroke-linecap:round;stroke-linejoin:round;stroke-miterlimit:4;stroke-dasharray:none;stroke-opacity:1;paint-order:stroke fill markers"
       d="m 465.04651,307.29147 c -1.06847,-2.06798 -2.62685,-6.30317 -3.46307,-9.41154 -0.83622,-3.10837 -2.43748,-6.4127 -3.55837,-7.34295 -1.76505,-1.46486 -1.47228,-2.33568 2.18615,-6.50239 3.4472,-3.92614 4.13371,-5.75909 3.73255,-9.96563 -0.47826,-5.01504 -0.35272,-5.17681 4.63658,-5.97463 6.03318,-0.96474 9.82645,-5.64863 8.58391,-10.59931 -0.59691,-2.37829 0.0913,-4.11123 2.55016,-6.42119 6.005,-5.64141 7.98355,-3.70421 11.44871,11.2094 2.81161,12.10083 2.91546,13.70577 1.05837,16.35714 -2.4318,3.47187 -2.68951,10.90406 -0.51876,14.96016 1.84546,3.44827 -0.66236,5.80285 -8.39954,7.88625 -2.69102,0.72462 -6.67056,3.1731 -8.84342,5.44107 -4.88982,5.10387 -6.92351,5.18243 -9.41327,0.36362 z"
       id="path17"
       transform="matrix(0.26458333,0,0,0.26458333,10.852618,6.5115713)" /><path
       style="opacity:1;fill:#d3cecb;fill-opacity:1;stroke:#000000;stroke-width:0;stroke-linecap:round;stroke-linejoin:round;stroke-miterlimit:4;stroke-dasharray:none;stroke-opacity:1;paint-order:stroke fill markers"
       d="m 501.96593,309.97843 c -0.3858,-0.62424 -1.11083,-4.221 -1.61118,-7.9928 -0.70211,-5.29276 -0.42236,-7.34518 1.22579,-8.99333 1.74818,-1.74818 1.85395,-2.88144 0.58314,-6.2482 -1.38252,-3.66271 -1.15521,-4.58468 2.07752,-8.42657 1.99644,-2.37263 4.71198,-7.36056 6.03453,-11.08428 2.3731,-6.68163 2.48109,-6.7704 8.23637,-6.7704 4.92024,0 5.83175,-0.42741 5.83175,-2.73452 0,-1.50398 0.54351,-2.73452 1.20779,-2.73452 2.00709,0 3.00268,5.41451 3.84983,20.93721 l 0.80686,14.78454 -6.85309,6.43402 c -7.41852,6.96488 -20.25512,14.664 -21.38931,12.82885 z"
       id="path18"
       transform="matrix(0.26458333,0,0,0.26458333,10.852618,6.5115713)" /><path
       style="opacity:1;fill:#d3cecb;fill-opacity:1;stroke:#000000;stroke-width:0;stroke-linecap:round;stroke-linejoin:round;stroke-miterlimit:4;stroke-dasharray:none;stroke-opacity:1;paint-order:stroke fill markers"
       d="m 561.04946,308.28095 c -1.2437,-0.72603 -5.55057,-2.14912 -9.57081,-3.16241 -6.65106,-1.67637 -7.64539,-2.44669 -11.03757,-8.55098 -3.89196,-7.00365 -4.86356,-13.40486 -2.27724,-15.0033 1.03836,-0.64174 1.21631,-4.51782 0.56589,-12.32607 -0.52183,-6.26447 -0.53944,-12.05227 -0.0392,-12.86177 0.97546,-1.57832 10.50045,3.46404 11.48336,6.07908 0.29469,0.78402 4.38842,5.13867 9.09717,9.677 6.43031,6.19757 8.96669,9.75676 10.18973,14.29878 1.70063,6.31566 1.08994,13.90138 -1.59321,19.79027 -1.68617,3.70074 -3.21536,4.16262 -6.81817,2.0594 z"
       id="path19"
       transform="matrix(0.26458333,0,0,0.26458333,10.852618,6.5115713)" /><path
       style="opacity:1;fill:#d3cecb;fill-opacity:1;stroke:#000000;stroke-width:0;stroke-linecap:round;stroke-linejoin:round;stroke-miterlimit:4;stroke-dasharray:none;stroke-opacity:1;paint-order:stroke fill markers"
       d="m 588.78986,280.23459 c -2.53031,-1.09856 -6.32684,-1.99737 -8.43673,-1.99737 -3.17088,0 -3.99619,-0.7286 -4.75891,-4.20122 -0.92014,-4.18937 -7.28187,-9.40568 -11.59986,-9.51133 -1.64148,-0.0402 -14.9946,-16.46176 -19.45564,-23.92644 -1.11845,-1.87151 6.06101,-1.56603 19.76918,0.84116 5.21678,0.91608 8.68515,0.91976 10.38316,0.011 2.0911,-1.11912 3.51025,-0.3641 7.89002,4.19767 2.93717,3.05922 7.27391,6.39418 9.63718,7.41103 4.1921,1.80372 4.31321,2.10823 4.96675,12.48802 0.36844,5.85156 1.12149,12.02356 1.67345,13.71554 0.85256,2.61343 0.51667,3.06828 -2.23223,3.02282 -1.77969,-0.0294 -5.30605,-0.95234 -7.83637,-2.05089 z"
       id="path20"
       transform="matrix(0.26458333,0,0,0.26458333,10.852618,6.5115713)" /><path
       style="opacity:1;fill:#d3cecb;fill-opacity:1;stroke:#000000;stroke-width:0;stroke-linecap:round;stroke-linejoin:round;stroke-miterlimit:4;stroke-dasharray:none;stroke-opacity:1;paint-order:stroke fill markers"
       d="m 555.56265,231.13963 c -4.26144,-0.9338 -9.57969,-2.4565 -11.81832,-3.38378 l -4.07024,-1.68594 4.55098,-10.49053 c 3.7757,-8.70342 5.13844,-10.56325 7.99946,-10.91747 2.20407,-0.27288 4.51906,-2.15919 6.41526,-5.2273 2.11277,-3.41852 3.38918,-4.37797 4.43413,-3.33302 2.46596,2.46596 8.48301,1.64337 13.65561,-1.86685 l 4.91322,-3.3342 7.50282,4.941 c 6.57872,4.33244 7.32516,5.27296 6.0604,7.63618 -0.79332,1.48234 -1.13849,5.39151 -0.76704,8.68704 0.78744,6.98614 -1.04402,8.64758 -9.53254,8.64758 -4.80765,0 -5.52631,0.51375 -8.6067,6.15266 -3.03686,5.55924 -3.82535,6.13916 -8.175,6.01256 -2.64768,-0.0771 -8.3006,-0.90412 -12.56204,-1.83793 z"
       id="path21"
       transform="matrix(0.26458333,0,0,0.26458333,10.852618,6.5115713)" /><path
       style="opacity:1;fill:#d3cecb;fill-opacity:1;stroke:#000000;stroke-width:0;stroke-linecap:round;stroke-linejoin:round;stroke-miterlimit:4;stroke-dasharray:none;stroke-opacity:1;paint-order:stroke fill markers"
       d="m 488.77388,217.36861 c -3.02228,-3.64163 0.91196,-27.91525 5.27767,-32.56233 2.12637,-2.26342 2.94712,-4.86926 2.94712,-9.35698 0,-7.43661 3.12272,-11.14956 14.29807,-17.00061 7.13394,-3.73509 7.47406,-3.78273 10.09196,-1.41356 3.74717,3.39114 4.62174,7.9775 2.83314,14.85741 -0.83662,3.21813 -1.43398,8.47252 -1.32745,11.67644 0.21403,6.43748 -3.58495,13.07926 -13.00255,22.73239 -4.82279,4.94342 -16.34143,13.14371 -18.46248,13.14371 -0.51269,0 -1.70765,-0.93441 -2.65548,-2.07647 z"
       id="path22"
       transform="matrix(0.26458333,0,0,0.26458333,10.852618,6.5115713)" /><path
       style="opacity:1;fill:#d3cecb;fill-opacity:1;stroke:#000000;stroke-width:0;stroke-linecap:round;stroke-linejoin:round;stroke-miterlimit:4;stroke-dasharray:none;stroke-opacity:1;paint-order:stroke fill markers"
       d="m 412.85885,163.05775 c -0.43205,-1.12593 -0.59679,-5.27995 -0.36608,-9.23117 0.40113,-6.86997 0.62867,-7.25229 5.20487,-8.74518 l 4.78541,-1.56114 -0.45479,-7.78906 -0.4548,-7.78907 5.48303,3.00336 5.48303,3.00335 6.28823,-3.05506 c 9.3317,-4.53369 10.82714,-4.17518 9.94727,2.38474 -1.2243,9.12785 -9.72193,22.66125 -16.8531,26.8404 -7.50114,4.39596 -17.88937,5.99744 -19.06307,2.93883 z"
       id="path23"
       transform="matrix(0.26458333,0,0,0.26458333,10.852618,6.5115713)" /><path
       style="opacity:1;fill:#d3cecb;fill-opacity:1;stroke:#000000;stroke-width:0;stroke-linecap:round;stroke-linejoin:round;stroke-miterlimit:4;stroke-dasharray:none;stroke-opacity:1;paint-order:stroke fill markers"
       d="m 398.92191,147.02658 c -10.68202,-13.20646 -13.16826,-18.72127 -11.10649,-24.63567 0.82713,-2.37272 1.20346,-6.97932 0.83629,-10.23689 -0.63027,-5.59168 -0.45563,-5.96526 3.12323,-6.68103 2.42826,-0.48565 5.35818,-2.94067 8.15142,-6.830186 l 4.3606,-6.072025 6.65391,6.903314 c 6.22963,6.463137 6.64879,7.347787 6.57369,13.874007 -0.11187,9.72091 1.00907,22.92805 2.18238,25.71326 0.7603,1.80481 0.10129,2.53266 -2.90043,3.20341 -8.58699,1.9188 -8.51461,1.84831 -8.94248,8.70921 l -0.41083,6.58769 z"
       id="path24"
       transform="matrix(0.26458333,0,0,0.26458333,10.852618,6.5115713)" /><path
       style="opacity:1;fill:#d3cecb;fill-opacity:1;stroke:#000000;stroke-width:0;stroke-linecap:round;stroke-linejoin:round;stroke-miterlimit:4;stroke-dasharray:none;stroke-opacity:1;paint-order:stroke fill markers"
       d="m 374.9708,183.07611 c -3.57197,-1.09837 -6.49448,-2.66215 -6.49448,-3.47508 0,-0.94869 -1.71388,-1.15653 -4.78541,-0.5803 -4.53864,0.85145 -6.55899,-0.70317 -3.42832,-2.63803 0.82858,-0.51209 0.27042,-2.96876 -1.43323,-6.30819 l -2.79031,-5.46947 3.40847,-7.44509 c 1.87466,-4.09479 3.80899,-7.44508 4.2985,-7.44508 0.48951,0 2.71535,1.29975 4.94631,2.88833 3.67441,2.61641 4.61646,2.7315 10.00623,1.22246 4.58971,-1.28504 7.06055,-1.29934 10.80806,-0.0625 4.4652,1.47365 10.48503,7.01784 12.25087,11.2829 0.53529,1.29288 1.2853,1.06929 2.82767,-0.84298 2.06369,-2.55859 2.11304,-2.55859 2.92022,0 0.45159,1.43142 1.39663,3.67929 2.1001,4.99528 1.43418,2.68293 0.78775,2.97012 -2.60198,1.15599 -1.78961,-0.95777 -4.44894,0.58418 -11.79025,6.83629 -5.21368,4.44016 -10.43985,8.03016 -11.6137,7.97778 -1.17385,-0.0524 -5.05679,-0.9939 -8.62875,-2.09226 z"
       id="path25"
       transform="matrix(0.26458333,0,0,0.26458333,10.852618,6.5115713)" /></g><style
     type="text/css"
     id="style1">
	.st0{fill:none;stroke:#000000;stroke-miterlimit:10;}
</style></svg>
